<svg width="512" height="512" viewBox="0 0 512 512" fill="none" xmlns="http://www.w3.org/2000/svg">
  <defs>
    <!-- Dégradés cercles originaux Figma -->
    <linearGradient id="paint0_linear_142_29" x1="659.711" y1="-174.08" x2="161.484" y2="233.757" gradientUnits="userSpaceOnUse">
      <stop stop-color="#00E2D6"/><stop offset="1" stop-color="#FFDA71"/>
    </linearGradient>
    <linearGradient id="paint1_linear_142_29" x1="159.101" y1="71.68" x2="492.179" y2="736.708" gradientUnits="userSpaceOnUse">
      <stop stop-color="#00918E"/><stop offset="0.9999" stop-color="#374078"/>
    </linearGradient>
    <linearGradient id="paint2_linear_142_29" x1="28.3107" y1="-199.68" x2="428.775" y2="400.953" gradientUnits="userSpaceOnUse">
      <stop stop-color="#FFDA71"/><stop offset="1" stop-color="#D92D20"/>
    </linearGradient>
    <linearGradient id="paint3_linear_142_29" x1="-210.719" y1="256" x2="479.311" y2="256" gradientUnits="userSpaceOnUse">
      <stop stop-color="#D92D20"/><stop offset="1" stop-color="#5B5BD6"/>
    </linearGradient>
    <linearGradient id="paint4_linear_142_29" x1="353.031" y1="51.2" x2="-145.393" y2="672.397" gradientUnits="userSpaceOnUse">
      <stop stop-color="#3C4597"/><stop offset="1" stop-color="#5B5BD6"/>
    </linearGradient>
    <linearGradient id="paint5_linear_142_29" x1="28.3107" y1="256" x2="743.941" y2="343.773" gradientUnits="userSpaceOnUse">
      <stop stop-color="#00E2D6"/><stop offset="1" stop-color="#00918E"/>
    </linearGradient>
    <!-- Dégradés arcs de liaison -->
    <linearGradient id="arc1" x1="383.628" y1="390.35" x2="311.697" y2="483.254" gradientUnits="userSpaceOnUse">
      <stop stop-color="#5B5BD6"/><stop offset="1" stop-color="#D92D20"/>
    </linearGradient>
    <linearGradient id="arc2" x1="128.81" y1="395.363" x2="194.203" y2="482.801" gradientUnits="userSpaceOnUse">
      <stop stop-color="#D92D20"/><stop offset="1" stop-color="#FFDA71"/>
    </linearGradient>
    <linearGradient id="arc3" x1="36.557" y1="195.47" x2="36.557" y2="318.071" gradientUnits="userSpaceOnUse">
      <stop stop-color="#FFDA71"/><stop offset="1" stop-color="#D92D20"/>
    </linearGradient>
    <linearGradient id="arc4" x1="472.356" y1="200.791" x2="472.356" y2="312.577" gradientUnits="userSpaceOnUse">
      <stop stop-color="#00918E"/><stop offset="1" stop-color="#374078"/>
    </linearGradient>
    <linearGradient id="arc5" x1="311.697" y1="32.8205" x2="413.616" y2="124.662" gradientUnits="userSpaceOnUse">
      <stop stop-color="#00E2D6"/><stop offset="1" stop-color="#00918E"/>
    </linearGradient>
    <linearGradient id="arc6" x1="194.203" y1="33.2714" x2="95.9936" y2="119.545" gradientUnits="userSpaceOnUse">
      <stop stop-color="#00E2D6"/><stop offset="1" stop-color="#FFDA71"/>
    </linearGradient>
  </defs>

  <!-- 6 cercles avec dégradés Figma -->
  <path d="M120.262 150.974C120.262 175.143 100.658 194.735 76.4757 194.735C52.2931 194.735 32.6893 175.143 32.6893 150.974C32.6893 126.806 52.2931 107.214 76.4757 107.214C100.658 107.214 120.262 126.806 120.262 150.974Z" fill="url(#paint0_linear_142_29)"/>
  <path d="M479.311 150.974C479.311 175.143 459.707 194.735 435.524 194.735C411.342 194.735 391.738 175.143 391.738 150.974C391.738 126.806 411.342 107.214 435.524 107.214C459.707 107.214 479.311 126.806 479.311 150.974Z" fill="url(#paint1_linear_142_29)"/>
  <path d="M120.262 363.214C120.262 387.382 100.658 406.974 76.4757 406.974C52.2931 406.974 32.6893 387.382 32.6893 363.214C32.6893 339.045 52.2931 319.453 76.4757 319.453C100.658 319.453 120.262 339.045 120.262 363.214Z" fill="url(#paint2_linear_142_29)"/>
  <path d="M295.408 468.239C295.408 492.408 275.804 512 251.621 512C227.439 512 207.835 492.408 207.835 468.239C207.835 444.071 227.439 424.479 251.621 424.479C275.804 424.479 295.408 444.071 295.408 468.239Z" fill="url(#paint3_linear_142_29)"/>
  <path d="M479.311 363.214C479.311 387.382 459.707 406.974 435.524 406.974C411.342 406.974 391.738 387.382 391.738 363.214C391.738 339.045 411.342 319.453 435.524 319.453C459.707 319.453 479.311 339.045 479.311 363.214Z" fill="url(#paint4_linear_142_29)"/>
  <path d="M295.408 43.7607C295.408 67.929 275.804 87.5214 251.621 87.5214C227.439 87.5214 207.835 67.929 207.835 43.7607C207.835 19.5923 227.439 0 251.621 0C275.804 0 295.408 19.5923 295.408 43.7607Z" fill="url(#paint5_linear_142_29)"/>

  <!-- 7 arcs de liaison avec dégradés -->
  <path d="M383.628 390.35C390.318 403.796 401.7 414.534 415.786 420.045C387.757 449.998 351.993 472.236 311.697 483.254C312.749 478.694 313.307 473.959 313.307 469.12C313.307 458.427 310.599 448.243 305.801 439.34C335.627 430.055 362.324 412.994 383.628 390.35Z" fill="url(#arc1)"/>
  <path d="M128.81 395.363C148.925 415.197 173.368 430.267 200.429 438.925C195.49 447.925 192.702 458.261 192.702 469.12C192.702 473.799 193.218 478.381 194.203 482.801C155.45 471.878 120.955 450.556 93.5926 421.985C108.482 417.903 120.897 408.17 128.81 395.363Z" fill="url(#arc2)"/>
  <path d="M36.557 195.47C47.1468 205.7 61.4196 212.098 77.4485 212.205C73.9546 226.858 72.0971 242.208 72.0971 258.038C72.0972 272.728 73.6972 287.003 76.7194 300.692C60.6491 300.992 46.383 307.617 35.8878 318.071C30.9445 298.893 28.3108 278.766 28.3107 258.038C28.3107 236.396 31.1829 215.407 36.557 195.47Z" fill="url(#arc3)"/>
  <path d="M472.356 200.791C476.847 219.129 479.234 238.312 479.234 258.038C479.234 276.796 477.075 295.061 473.001 312.577C463.11 305.131 450.852 300.677 437.367 300.677C435.124 300.677 432.916 300.803 430.746 301.043C433.818 287.247 435.447 272.854 435.447 258.038C435.447 242.045 433.548 226.544 429.985 211.754C432.399 212.052 434.861 212.212 437.367 212.212C450.56 212.212 462.579 207.948 472.356 200.791Z" fill="url(#arc4)"/>
  <path d="M311.697 32.8205C350.959 43.5565 385.921 64.9402 413.616 93.7372C399.811 99.7854 388.819 110.938 382.621 124.662C361.485 102.546 335.158 85.8719 305.798 76.7329C310.597 67.8301 313.307 57.6476 313.307 46.9551C313.307 42.1154 312.749 37.3806 311.697 32.8205Z" fill="url(#arc5)"/>
  <path d="M194.203 33.2714C193.218 37.692 192.702 42.2752 192.702 46.9551C192.702 57.8131 195.493 68.1474 200.431 77.1474C173.902 85.6349 149.889 100.286 130.003 119.545C122.58 106.457 110.575 96.2901 95.9936 91.6133C122.961 64.2844 156.576 43.8774 194.203 33.2714Z" fill="url(#arc6)"/>
</svg>
